{"title":"All Styles 2018 Movies 720p HDRip x264 AAC with Sample ☻rDX☻","magnet":"magnet:?xt=urn:btih:1de868c87085411e1f3da9e122ec2f8fd1366c9b&dn=All+Styles+2018+Movies+720p+HDRip+x264+AAC+with+Sample+%E2%98%BBrDX%E2%98%BB&tr=udp%3A%2F%2Ftracker.leechers-paradise.org%3A6969&tr=udp%3A%2F%2Fzer0day.ch%3A1337&tr=udp%3A%2F%2Fopen.demonii.com%3A1337&tr=udp%3A%2F%2Ftracker.coppersurfer.tk%3A6969&tr=udp%3A%2F%2Fexodus.desync.com%3A6969","uploader":"basicssom","categoryP":"video","categoryS":"hd___movies","size":"833897305","seeders":"0","leechers":"21","description":"All Styles 2018 Movies 720p HDRip x264 AAC with Sample &#x263B;rDX&#x263B;\r\n\r\nSCREEN SHOTS &amp; POSTER:\r\n   <a href=\"\nhttps://iphonehosting.eu/2018/9/a/selling/index.html\" rel=\"nofollow\" target=\"_NEW\">\nhttps://iphonehosting.eu/2018/9/a/selling/index.html</a> <a href=\"\nhttps://iphonehosting.eu/2018/9/a/selling/1.html\" rel=\"nofollow\" target=\"_NEW\">\nhttps://iphonehosting.eu/2018/9/a/selling/1.html</a> <a href=\"\nhttps://iphonehosting.eu/2018/9/a/selling/2.html\" rel=\"nofollow\" target=\"_NEW\">\nhttps://iphonehosting.eu/2018/9/a/selling/2.html</a>   <a href=\"\nhttps://iphonehosting.eu/2018/9/a/selling/3.html\" rel=\"nofollow\" target=\"_NEW\">\nhttps://iphonehosting.eu/2018/9/a/selling/3.html</a>   <a href=\"\nhttps://iphonehosting.eu/2018/9/a/selling/4.html\" rel=\"nofollow\" target=\"_NEW\">\nhttps://iphonehosting.eu/2018/9/a/selling/4.html</a>   <a href=\"\nhttps://iphonehosting.eu/2018/9/a/selling/5.html\" rel=\"nofollow\" target=\"_NEW\">\nhttps://iphonehosting.eu/2018/9/a/selling/5.html</a>   <a href=\"\nhttps://iphonehosting.eu/2018/9/a/selling/6.html\" rel=\"nofollow\" target=\"_NEW\">\nhttps://iphonehosting.eu/2018/9/a/selling/6.html</a>   <a href=\"\nhttps://iphonehosting.eu/2018/9/a/selling/7.html\" rel=\"nofollow\" target=\"_NEW\">\nhttps://iphonehosting.eu/2018/9/a/selling/7.html</a>   <a href=\"\nhttps://iphonehosting.eu/2018/9/a/selling/8.html\" rel=\"nofollow\" target=\"_NEW\">\nhttps://iphonehosting.eu/2018/9/a/selling/8.html</a>   <a href=\"\nhttps://iphonehosting.eu/2018/9/a/selling/9.html\" rel=\"nofollow\" target=\"_NEW\">\nhttps://iphonehosting.eu/2018/9/a/selling/9.html</a>   <a href=\"\nhttps://iphonehosting.eu/2018/9/a/selling/10.html\" rel=\"nofollow\" target=\"_NEW\">\nhttps://iphonehosting.eu/2018/9/a/selling/10.html</a>\r\n\r\nFile size                                : 787 MiB\r\nDuration                                 : 1 h 30 min\r\nOverall bit rate mode                    : Constant\r\nOverall bit rate                         : 1 213 kb/s\r\nMovie name                               : All Styles 2018 Movies 720p HDRip x264 AAC &#x263B;rDX&#x263B;\r\n\r\nVideo\r\nID                                       : 2\r\nFormat                                   : AVC\r\nFormat/Info                              : Advanced Video Codec\r\nFormat profile                           : Main@L3.1\r\nFormat settings, CABAC                   : Yes\r\nFormat settings, ReFrames                : 2 frames\r\nFormat settings, GOP                     : M=1, N=25\r\nCodec ID                                 : V_MPEG4/ISO/AVC\r\nDuration                                 : 1 h 30 min\r\nBit rate mode                            : Constant\r\nBit rate                                 : 1 150 kb/s\r\nWidth                                    : 1 280 pixels\r\nHeight                                   : 522 pixels\r\nDisplay aspect ratio                     : 2.452\r\nFrame rate mode                          : Constant\r\nFrame rate                               : 29.970 (30000/1001) FPS\r\nColor space                              : YUV\r\nChroma subsampling                       : 4:2:0\r\nBit depth                                : 8 bits\r\nScan type                                : Progressive\r\nBits/(Pixel*Frame)                       : 0.057\r\nStream size                              : 730 MiB (93%)\r\nTitle                                    : &#x263B;rDX&#x263B;\r\nDefault                                  : Yes\r\nForced                                   : No\r\n\r\nAudio\r\nID                                       : 1\r\nFormat                                   : MPEG Audio\r\nFormat version                           : Version 1\r\nFormat profile                           : Layer 3\r\nMode                                     : Joint stereo\r\nMode extension                           : MS Stereo\r\nCodec ID                                 : A_MPEG/L3\r\nCodec ID/Hint                            : MP3\r\nDuration                                 : 1 h 30 min\r\nBit rate mode                            : Constant\r\nBit rate                                 : 64.0 kb/s\r\nChannel(s)                               : 2 channels\r\nSampling rate                            : 44.1 kHz\r\nCompression mode                         : Lossy\r\nStream size                              : 41.5 MiB (5%)\r\nTitle                                    : &#x263B;rDX&#x263B;\r\nWriting library                          : LAMEUUULAME3.99.5\r\nDefault                                  : Yes\r\nForced                                   : No\r\n <a href=\"\nhttps://www.imdb.com/title/tt7307136/\" rel=\"nofollow\" target=\"_NEW\">\nhttps://www.imdb.com/title/tt7307136/</a>","last_updated":"2018-09-26T12:13:29.844Z","parsed":{"xt":"urn:btih:1de868c87085411e1f3da9e122ec2f8fd1366c9b","dn":"All Styles 2018 Movies 720p HDRip x264 AAC with Sample ☻rDX☻","tr":["udp://exodus.desync.com:6969","udp://open.demonii.com:1337","udp://tracker.coppersurfer.tk:6969","udp://tracker.leechers-paradise.org:6969","udp://zer0day.ch:1337"],"infoHash":"1de868c87085411e1f3da9e122ec2f8fd1366c9b","infoHashBuffer":{"type":"Buffer","data":[29,232,104,200,112,133,65,30,31,61,169,225,34,236,47,143,209,54,108,155]},"name":"All Styles 2018 Movies 720p HDRip x264 AAC with Sample ☻rDX☻","announce":["udp://exodus.desync.com:6969","udp://open.demonii.com:1337","udp://tracker.coppersurfer.tk:6969","udp://tracker.leechers-paradise.org:6969","udp://zer0day.ch:1337"],"urlList":[]}}